<svg width="541" height="100" viewBox="0 0 541 100" fill="none" xmlns="http://www.w3.org/2000/svg">
<path d="M51.2554 27.9432L36.5006 53.4716L51.2554 79L25.6277 64.3024L0 79L14.7548 53.4716L2.41397e-06 27.9432L25.6277 42.6408L51.2554 27.9432Z" fill="#FAFAFA"/>
<path d="M80 0L36.71 53.4716L25.6277 42.4323L80 0Z" fill="#FAFAFA"/>
<path d="M87.208 79.96C82.408 79.96 78.024 79.032 74.056 77.176C70.088 75.32 66.952 72.696 64.648 69.304L71.752 63.16C73.16 65.784 75.176 67.896 77.8 69.496C80.488 71.032 83.688 71.8 87.4 71.8C90.344 71.8 92.68 71.288 94.408 70.264C96.136 69.24 97 67.8 97 65.944C97 64.728 96.584 63.672 95.752 62.776C94.984 61.816 93.48 61.08 91.24 60.568L81.16 58.456C76.04 57.432 72.392 55.8 70.216 53.56C68.04 51.256 66.952 48.344 66.952 44.824C66.952 42.2 67.72 39.768 69.256 37.528C70.792 35.288 73.032 33.496 75.976 32.152C78.984 30.744 82.568 30.04 86.728 30.04C91.528 30.04 95.624 30.904 99.016 32.632C102.408 34.296 105 36.696 106.792 39.832L99.688 45.784C98.472 43.224 96.68 41.336 94.312 40.12C91.944 38.84 89.48 38.2 86.92 38.2C84.872 38.2 83.112 38.456 81.64 38.968C80.168 39.48 79.048 40.184 78.28 41.08C77.512 41.976 77.128 43.032 77.128 44.248C77.128 45.528 77.608 46.648 78.568 47.608C79.528 48.568 81.256 49.304 83.752 49.816L94.696 52.12C99.304 53.016 102.536 54.552 104.392 56.728C106.312 58.84 107.272 61.432 107.272 64.504C107.272 67.576 106.472 70.296 104.872 72.664C103.272 74.968 100.968 76.76 97.96 78.04C94.952 79.32 91.368 79.96 87.208 79.96Z" fill="white"/>
<path d="M122.085 9.4V65.56C122.085 67.928 122.5 69.56 123.332 70.456C124.164 71.352 125.541 71.8 127.461 71.8C128.613 71.8 129.572 71.736 130.34 71.608C131.173 71.416 132.197 71.096 133.413 70.648L132.26 78.328C131.173 78.84 129.924 79.224 128.516 79.48C127.108 79.8 125.701 79.96 124.293 79.96C120.005 79.96 116.836 78.872 114.788 76.696C112.804 74.456 111.812 71.032 111.812 66.424V9.4H122.085Z" fill="white"/>
<path d="M155.447 79.96C150.647 79.96 146.423 78.968 142.775 76.984C139.127 75 136.279 72.152 134.231 68.44C132.247 64.664 131.255 60.184 131.255 55C131.255 49.816 132.247 45.368 134.231 41.656C136.279 37.88 139.095 35 142.679 33.016C146.263 31.032 150.327 30.04 154.871 30.04C159.543 30.04 163.511 31 166.775 32.92C170.039 34.84 172.535 37.464 174.263 40.792C175.991 44.12 176.855 47.896 176.855 52.12C176.855 53.272 176.823 54.36 176.759 55.384C176.695 56.408 176.599 57.304 176.471 58.072H137.879V50.2H171.959L166.871 51.736C166.871 47.384 165.783 44.056 163.607 41.752C161.431 39.384 158.455 38.2 154.679 38.2C151.927 38.2 149.527 38.84 147.479 40.12C145.431 41.4 143.863 43.32 142.775 45.88C141.687 48.376 141.143 51.448 141.143 55.096C141.143 58.68 141.719 61.72 142.871 64.216C144.023 66.712 145.655 68.6 147.767 69.88C149.879 71.16 152.375 71.8 155.255 71.8C158.455 71.8 161.047 71.192 163.031 69.976C165.015 68.76 166.583 67.064 167.735 64.888L175.895 68.728C174.743 71.032 173.175 73.048 171.191 74.776C169.271 76.44 166.967 77.72 164.279 78.616C161.591 79.512 158.647 79.96 155.447 79.96Z" fill="white"/>
<path d="M203.267 79.96C198.467 79.96 194.243 78.968 190.595 76.984C186.947 75 184.099 72.152 182.051 68.44C180.067 64.664 179.075 60.184 179.075 55C179.075 49.816 180.067 45.368 182.051 41.656C184.099 37.88 186.915 35 190.499 33.016C194.083 31.032 198.147 30.04 202.691 30.04C207.363 30.04 211.331 31 214.595 32.92C217.859 34.84 220.355 37.464 222.083 40.792C223.811 44.12 224.675 47.896 224.675 52.12C224.675 53.272 224.643 54.36 224.579 55.384C224.515 56.408 224.419 57.304 224.291 58.072H185.699V50.2H219.779L214.691 51.736C214.691 47.384 213.603 44.056 211.427 41.752C209.251 39.384 206.275 38.2 202.499 38.2C199.747 38.2 197.347 38.84 195.299 40.12C193.251 41.4 191.683 43.32 190.595 45.88C189.507 48.376 188.963 51.448 188.963 55.096C188.963 58.68 189.539 61.72 190.691 64.216C191.843 66.712 193.475 68.6 195.587 69.88C197.699 71.16 200.195 71.8 203.075 71.8C206.275 71.8 208.867 71.192 210.851 69.976C212.835 68.76 214.403 67.064 215.555 64.888L223.715 68.728C222.563 71.032 220.995 73.048 219.011 74.776C217.091 76.44 214.787 77.72 212.099 78.616C209.411 79.512 206.467 79.96 203.267 79.96Z" fill="white"/>
<path d="M229.967 99.16V31H239.087L239.855 44.44L238.511 42.808C239.279 40.312 240.463 38.104 242.063 36.184C243.663 34.264 245.647 32.76 248.015 31.672C250.447 30.584 253.103 30.04 255.983 30.04C259.887 30.04 263.439 31.032 266.639 33.016C269.839 35 272.367 37.848 274.223 41.56C276.079 45.208 277.007 49.656 277.007 54.904C277.007 60.152 276.047 64.664 274.127 68.44C272.271 72.152 269.711 75 266.447 76.984C263.247 78.968 259.663 79.96 255.695 79.96C251.599 79.96 248.111 78.904 245.231 76.792C242.351 74.616 240.303 71.864 239.087 68.536L240.239 66.904V99.16H229.967ZM253.487 71.608C257.647 71.608 260.879 70.136 263.183 67.192C265.551 64.248 266.735 60.184 266.735 55C266.735 49.816 265.583 45.752 263.279 42.808C260.975 39.8 257.775 38.296 253.679 38.296C250.991 38.296 248.623 39 246.575 40.408C244.591 41.752 243.023 43.672 241.871 46.168C240.783 48.6 240.239 51.544 240.239 55C240.239 58.392 240.783 61.336 241.871 63.832C242.959 66.328 244.495 68.248 246.479 69.592C248.463 70.936 250.799 71.608 253.487 71.608Z" fill="white"/>
<path d="M303.21 30.04C307.05 30.04 310.314 30.616 313.002 31.768C315.754 32.856 318.058 34.424 319.914 36.472C321.77 38.52 323.178 40.856 324.138 43.48L314.442 47.32C313.61 44.376 312.266 42.136 310.41 40.6C308.618 39 306.25 38.2 303.306 38.2C300.426 38.2 297.962 38.872 295.914 40.216C293.866 41.496 292.298 43.384 291.21 45.88C290.186 48.376 289.674 51.448 289.674 55.096C289.674 58.68 290.218 61.72 291.306 64.216C292.394 66.712 293.962 68.6 296.01 69.88C298.058 71.16 300.49 71.8 303.306 71.8C305.482 71.8 307.37 71.448 308.97 70.744C310.57 69.976 311.882 68.92 312.906 67.576C313.994 66.168 314.73 64.472 315.114 62.488L324.426 65.656C323.53 68.536 322.122 71.064 320.202 73.24C318.346 75.352 316.01 77.016 313.194 78.232C310.378 79.384 307.146 79.96 303.498 79.96C298.762 79.96 294.57 78.968 290.922 76.984C287.274 75 284.426 72.152 282.378 68.44C280.394 64.664 279.402 60.184 279.402 55C279.402 49.816 280.394 45.368 282.378 41.656C284.426 37.88 287.242 35 290.826 33.016C294.474 31.032 298.602 30.04 303.21 30.04Z" fill="white"/>
<path d="M349.533 30.04C354.204 30.04 358.333 31.032 361.917 33.016C365.5 35 368.285 37.88 370.269 41.656C372.317 45.368 373.341 49.816 373.341 55C373.341 60.184 372.317 64.664 370.269 68.44C368.285 72.152 365.5 75 361.917 76.984C358.333 78.968 354.204 79.96 349.533 79.96C344.861 79.96 340.733 78.968 337.148 76.984C333.564 75 330.749 72.152 328.701 68.44C326.652 64.664 325.629 60.184 325.629 55C325.629 49.816 326.652 45.368 328.701 41.656C330.749 37.88 333.564 35 337.148 33.016C340.733 31.032 344.861 30.04 349.533 30.04ZM349.533 38.104C346.652 38.104 344.189 38.776 342.141 40.12C340.156 41.4 338.621 43.288 337.533 45.784C336.444 48.28 335.901 51.352 335.901 55C335.901 58.584 336.444 61.656 337.533 64.216C338.621 66.712 340.156 68.632 342.141 69.976C344.189 71.256 346.652 71.896 349.533 71.896C352.413 71.896 354.845 71.256 356.829 69.976C358.813 68.632 360.349 66.712 361.437 64.216C362.525 61.656 363.069 58.584 363.069 55C363.069 51.352 362.525 48.28 361.437 45.784C360.349 43.288 358.813 41.4 356.829 40.12C354.845 38.776 352.413 38.104 349.533 38.104Z" fill="white"/>
<path d="M378.583 79V31H387.703L388.183 39.064C389.847 35.992 392.055 33.72 394.807 32.248C397.623 30.776 400.599 30.04 403.735 30.04C407.191 30.04 410.359 30.84 413.239 32.44C416.183 33.976 418.391 36.312 419.863 39.448C420.887 37.336 422.295 35.576 424.087 34.168C425.879 32.76 427.863 31.736 430.039 31.096C432.215 30.392 434.359 30.04 436.471 30.04C439.543 30.04 442.423 30.68 445.111 31.96C447.799 33.24 449.975 35.192 451.639 37.816C453.303 40.44 454.135 43.8 454.135 47.896V79H443.863V49.528C443.863 45.624 442.935 42.808 441.079 41.08C439.223 39.352 436.855 38.488 433.975 38.488C431.735 38.488 429.655 39.032 427.735 40.12C425.879 41.208 424.375 42.84 423.223 45.016C422.071 47.128 421.495 49.752 421.495 52.888V79H411.223V49.528C411.223 45.624 410.295 42.808 408.439 41.08C406.583 39.352 404.215 38.488 401.335 38.488C399.415 38.488 397.495 39 395.575 40.024C393.655 41.048 392.055 42.648 390.775 44.824C389.495 47 388.855 49.88 388.855 53.464V79H378.583Z" fill="white"/>
<path d="M483.148 79.96C478.348 79.96 474.124 78.968 470.476 76.984C466.828 75 463.98 72.152 461.932 68.44C459.948 64.664 458.956 60.184 458.956 55C458.956 49.816 459.948 45.368 461.932 41.656C463.98 37.88 466.796 35 470.38 33.016C473.964 31.032 478.028 30.04 482.572 30.04C487.244 30.04 491.212 31 494.476 32.92C497.74 34.84 500.236 37.464 501.964 40.792C503.692 44.12 504.556 47.896 504.556 52.12C504.556 53.272 504.524 54.36 504.46 55.384C504.396 56.408 504.3 57.304 504.172 58.072H465.58V50.2H499.66L494.572 51.736C494.572 47.384 493.484 44.056 491.308 41.752C489.132 39.384 486.156 38.2 482.38 38.2C479.628 38.2 477.228 38.84 475.18 40.12C473.132 41.4 471.564 43.32 470.476 45.88C469.388 48.376 468.844 51.448 468.844 55.096C468.844 58.68 469.42 61.72 470.572 64.216C471.724 66.712 473.356 68.6 475.468 69.88C477.58 71.16 480.076 71.8 482.956 71.8C486.156 71.8 488.748 71.192 490.732 69.976C492.716 68.76 494.284 67.064 495.436 64.888L503.596 68.728C502.444 71.032 500.876 73.048 498.892 74.776C496.972 76.44 494.668 77.72 491.98 78.616C489.292 79.512 486.348 79.96 483.148 79.96Z" fill="white"/>
<path d="M522.739 16.888V64.6C522.739 66.968 523.347 68.696 524.563 69.784C525.843 70.872 527.539 71.416 529.651 71.416C531.379 71.416 532.883 71.16 534.163 70.648C535.443 70.072 536.627 69.304 537.715 68.344L540.019 75.832C538.547 77.112 536.723 78.136 534.547 78.904C532.435 79.608 530.067 79.96 527.443 79.96C524.691 79.96 522.163 79.512 519.859 78.616C517.555 77.72 515.763 76.28 514.483 74.296C513.203 72.248 512.531 69.592 512.467 66.328V19.768L522.739 16.888ZM539.251 31V39.064H503.251V31H539.251Z" fill="white"/>
</svg>
